<?xml version="1.0" encoding="utf-8"?>
<svg viewBox="0 0 1721 345.789" fill="none" xmlns="http://www.w3.org/2000/svg">
  <defs>
    <filter id="filter0_i_0_1" x="264" y="149" width="1177" height="235" filterUnits="userSpaceOnUse" color-interpolation-filters="sRGB">
      <feFlood flood-opacity="0" result="BackgroundImageFix"/>
      <feBlend mode="normal" in="SourceGraphic" in2="BackgroundImageFix" result="shape"/>
      <feColorMatrix in="SourceAlpha" type="matrix" values="0 0 0 0 0 0 0 0 0 0 0 0 0 0 0 0 0 0 127 0" result="hardAlpha"/>
      <feOffset dy="4"/>
      <feGaussianBlur stdDeviation="2"/>
      <feComposite in2="hardAlpha" operator="arithmetic" k2="-1" k3="1"/>
      <feColorMatrix type="matrix" values="0 0 0 0 0 0 0 0 0 0 0 0 0 0 0 0 0 0 0.25 0"/>
      <feBlend mode="normal" in2="shape" result="effect1_innerShadow_0_1"/>
    </filter>
  </defs>
  <path d="M1721 348.5C1721 348.5 1375.24 348.5 900 348.5C424.759 348.5 0 348.5 0 348.5C0 156.029 385.259 0 860.5 0C1335.74 0 1721 156.029 1721 348.5Z" fill="#D9D9D9"/>
  <g filter="url(#filter0_i_0_1)">
    <path d="M1441 380C1441 380 1222.94 380 856.5 380C490.059 380 264 380 264 380C264 274.194 490.059 149 856.5 149C1317.5 149 1441 380 1441 380Z" fill="#D9D9D9"/>
  </g>
  <path d="M1402.03 354.717C1404.72 357.816 1407.17 360.752 1409.37 363.5H1409.34H1408.79H1408.23H1407.67H1407.11H1406.54H1405.96H1405.38H1404.8H1404.21H1403.62H1403.02H1402.42H1401.81H1401.2H1400.59H1399.97H1399.34H1398.71H1398.08H1397.44H1396.8H1396.15H1395.5H1394.84H1394.18H1393.51H1392.84H1392.17H1391.49H1390.8H1390.11H1389.42H1388.72H1388.02H1387.31H1386.6H1385.89H1385.17H1384.44H1383.71H1382.98H1382.24H1381.5H1380.75H1380H1379.24H1378.48H1377.72H1376.95H1376.17H1375.39H1374.61H1373.82H1373.03H1372.23H1371.43H1370.63H1369.82H1369H1368.18H1367.36H1366.53H1365.7H1364.86H1364.02H1363.17H1362.32H1361.47H1360.61H1359.75H1358.88H1358.01H1357.13H1356.25H1355.36H1354.47H1353.58H1352.68H1351.78H1350.87H1349.96H1349.04H1348.12H1347.2H1346.27H1345.33H1344.4H1343.45H1342.51H1341.56H1340.6H1339.64H1338.68H1337.71H1336.73H1335.76H1334.78H1333.79H1332.8H1331.8H1330.81H1329.8H1328.79H1327.78H1326.77H1325.75H1324.72H1323.69H1322.66H1321.62H1320.58H1319.53H1318.48H1317.43H1316.37H1315.31H1314.24H1313.17H1312.09H1311.01H1309.92H1308.83H1307.74H1306.64H1305.54H1304.44H1303.33H1302.21H1301.09H1299.97H1298.84H1297.71H1296.58H1295.44H1294.29H1293.14H1291.99H1290.83H1289.67H1288.51H1287.34H1286.17H1284.99H1283.81H1282.62H1281.43H1280.23H1279.04H1277.83H1276.63H1275.42H1274.2H1272.98H1271.76H1270.53H1269.3H1268.06H1266.82H1265.58H1264.33H1263.08H1261.82H1260.56H1259.29H1258.02H1256.75H1255.47H1254.19H1252.91H1251.62H1250.32H1249.02H1247.72H1246.42H1245.11H1243.79H1242.47H1241.15H1239.82H1238.49H1237.16H1235.82H1234.48H1233.13H1231.78H1230.42H1229.06H1227.7H1226.33H1224.96H1223.59H1222.21H1220.82H1219.44H1218.04H1216.65H1215.25H1213.85H1212.44H1211.03H1209.61H1208.19H1206.77H1205.34H1203.91H1202.47H1201.03H1199.59H1198.14H1196.69H1195.24H1193.78H1192.31H1190.84H1189.37H1187.9H1186.42H1184.93H1183.45H1181.96H1180.46H1178.96H1177.46H1175.95H1174.44H1172.93H1171.41H1169.88H1168.36H1166.83H1165.29H1163.75H1162.21H1160.66H1159.11H1157.56H1156H1154.44H1152.87H1151.31H1149.73H1148.15H1146.57H1144.99H1143.4H1141.81H1140.21H1138.61H1137H1135.39H1133.78H1132.17H1130.55H1128.92H1127.29H1125.66H1124.03H1122.39H1120.75H1119.1H1117.45H1115.79H1114.14H1112.47H1110.81H1109.14H1107.46H1105.79H1104.11H1102.42H1100.73H1099.04H1097.34H1095.64H1093.94H1092.23H1090.52H1088.8H1087.09H1085.36H1083.64H1081.91H1080.17H1078.43H1076.69H1074.95H1073.2H1071.44H1069.69H1067.93H1066.16H1064.4H1062.62H1060.85H1059.07H1057.29H1055.5H1053.71H1051.92H1050.12H1048.32H1046.51H1044.71H1042.89H1041.08H1039.26H1037.43H1035.61H1033.78H1031.94H1030.1H1028.26H1026.42H1024.57H1022.72H1020.86H1019H1017.14H1015.27H1013.4H1011.52H1009.64H1007.76H1005.88H1003.99H1002.1H1000.2H998.299H996.396H994.489H992.578H990.663H988.745H986.824H984.899H982.97H981.038H979.102H977.162H975.219H973.272H971.322H969.368H967.411H965.45H963.485H961.517H959.546H957.57H955.592H953.609H951.624H949.634H947.641H945.645H943.645H941.641H939.634H937.624H935.61H933.592H931.571H929.547H927.518H925.487H923.452H921.413H919.371H917.326H915.276H913.224H911.168H909.108H907.045H904.979H902.909H900.836H898.759H896.679H894.595H892.508H890.417H888.323H886.225H884.124H882.02H879.912H877.801H875.686H873.568H871.446H869.321H867.193H865.061H862.926H860.787H858.645H856.5H854.354H852.212H850.073H847.937H845.805H843.675H841.549H839.426H837.307H835.19H833.077H830.967H828.86H826.757H824.657H822.56H820.466H818.376H816.289H814.205H812.125H810.048H807.974H805.903H803.836H801.772H799.712H797.654H795.6H793.55H791.502H789.458H787.418H785.38H783.346H781.316H779.288H777.265H775.244H773.227H771.213H769.202H767.195H765.192H763.191H761.194H759.201H757.211H755.224H753.24H751.26H749.284H747.311H745.341H743.375H741.412H739.452H737.496H735.544H733.595H731.649H729.707H727.768H725.832H723.9H721.972H720.047H718.126H716.208H714.293H712.382H710.474H708.57H706.67H704.772H702.879H700.989H699.102H697.219H695.34H693.463H691.591H689.722H687.856H685.995H684.136H682.281H680.43H678.582H676.738H674.897H673.06H671.227H669.397H667.57H665.748H663.928H662.113H660.301H658.492H656.687H654.886H653.089H651.294H649.504H647.717H645.934H644.154H642.379H640.606H638.837H637.072H635.311H633.553H631.799H630.049H628.302H626.559H624.819H623.083H621.351H619.623H617.898H616.177H614.46H612.746H611.036H609.33H607.627H605.928H604.233H602.541H600.854H599.17H597.489H595.813H594.14H592.471H590.805H589.144H587.486H585.832H584.181H582.535H580.892H579.253H577.618H575.986H574.358H572.734H571.114H569.498H567.885H566.276H564.672H563.07H561.473H559.879H558.29H556.704H555.122H553.543H551.969H550.398H548.832H547.269H545.71H544.155H542.603H541.056H539.512H537.972H536.437H534.905H533.376H531.852H530.332H528.815H527.303H525.794H524.289H522.789H521.292H519.799H518.309H516.824H515.343H513.866H512.392H510.923H509.457H507.996H506.538H505.084H503.635H502.189H500.747H499.309H497.875H496.446H495.02H493.598H492.18H490.766H489.356H487.95H486.548H485.15H483.756H482.366H480.98H479.598H478.221H476.847H475.477H474.111H472.749H471.392H470.038H468.689H467.343H466.002H464.664H463.331H462.002H460.676H459.355H458.038H456.725H455.416H454.112H452.811H451.514H450.222H448.934H447.649H446.369H445.093H443.822H442.554H441.29H440.031H438.775H437.524H436.277H435.034H433.796H432.561H431.331H430.104H428.882H427.664H426.451H425.241H424.036H422.835H421.638H420.445H419.256H418.072H416.892H415.716H414.544H413.377H412.213H411.054H409.9H408.749H407.603H406.461H405.323H404.189H403.06H401.935H400.814H399.697H398.585H397.477H396.373H395.274H394.179H393.088H392.001H390.919H389.841H388.767H387.698H386.633H385.572H384.516H383.463H382.416H381.372H380.333H379.298H378.268H377.242H376.22H375.203H374.19H373.181H372.177H371.177H370.181H369.19H368.203H367.221H366.243H365.269H364.3H363.335H362.375H361.419H360.467H359.52H358.577H357.639H356.705H355.776H354.851H353.93H353.014H352.102H351.195H350.292H349.394H348.5H347.61H346.725H345.845H344.969H344.097H343.23H342.368H341.51H340.656H339.807H338.962H338.122H337.287H336.456H335.629H334.807H333.99H333.177H332.369H331.565H330.765H329.971H329.18H328.395H327.614H326.837H326.065H325.298H324.535H323.777H323.023H322.274H321.529H320.789H320.054H319.323H318.597H317.876H317.159H316.446H315.739H315.036H314.337H313.644H312.954H312.27H311.59H310.915H310.244H309.578H308.917H308.26H307.608H306.961H306.319H305.681H305.047H304.419H303.795H303.176H302.561H301.951H301.346H300.746H300.15H299.559H298.973H298.392H297.815H297.243H296.675H296.113H295.555H295.002H294.454H293.91H293.371H292.837H292.308H291.783H291.263H290.748H290.238H289.733H289.232H288.736H288.245H287.759H287.277H286.801H286.329H285.862H285.4H284.942H284.49H284.042H283.599H283.161H282.769C287.144 347.223 298 329.441 316.648 311.003C341.689 286.244 379.478 261.684 429.418 239.952C529.211 196.528 674.996 165.5 856.5 165.5C1084.1 165.5 1227.03 222.476 1312.61 278.318C1355.47 306.288 1384.17 334.121 1402.03 354.717Z" stroke="#A2A2A2" stroke-width="33"/>
</svg>